<svg xmlns="http://www.w3.org/2000/svg" viewBox="0 0 64 64"><g id="_14-Monster" data-name="14-Monster"><path d="M29,35h6a3,3,0,0,1-6,0Z" style="fill:#fa7787"/><path d="M54,1s2,6,2,10a8.7,8.7,0,0,1-2.01,1.76A13.805,13.805,0,0,0,52,6Z" style="fill:#7e8596"/><path d="M10,1l2,5a13.805,13.805,0,0,0-1.99,6.76A8.7,8.7,0,0,1,8,11C8,7,10,1,10,1Z" style="fill:#7e8596"/><path d="M53.99,12.76a12.73,12.73,0,0,1-4,1.76,28.014,28.014,0,0,0-.92-7.27L52,6A13.805,13.805,0,0,1,53.99,12.76Z" style="fill:#afb4c8"/><path d="M12,6l2.93,1.25a28.014,28.014,0,0,0-.92,7.27,12.73,12.73,0,0,1-4-1.76A13.805,13.805,0,0,1,12,6Z" style="fill:#afb4c8"/><path d="M49.07,7.25a28.014,28.014,0,0,1,.92,7.27,15.605,15.605,0,0,1-3.03.45,14.825,14.825,0,0,0-1.74-6.06Z" style="fill:#cdd2e1"/><path d="M14.93,7.25l3.85,1.66a14.825,14.825,0,0,0-1.74,6.06,15.605,15.605,0,0,1-3.03-.45A28.014,28.014,0,0,1,14.93,7.25Z" style="fill:#cdd2e1"/><path d="M11,19l5.37,2.69c-.33,1.37-.73,2.57-1,4.25C11.89,25.26,11,19,11,19Z" style="fill:#45409e"/><path d="M47.63,21.69,53,19s-.89,6.26-4.37,6.94C48.36,24.26,47.96,23.06,47.63,21.69Z" style="fill:#45409e"/><path d="M63,63H55a79.035,79.035,0,0,0-1-14c0-6,7-9,7-9A183.807,183.807,0,0,1,63,63Z" style="fill:#9f72fc"/><path d="M10,49A79.035,79.035,0,0,0,9,63H1A183.807,183.807,0,0,1,3,40S10,43,10,49Z" style="fill:#9f72fc"/><path d="M15,31a17,17,0,0,0,34,0s5,0,12,9c0,0-7,3-7,9a79.035,79.035,0,0,1,1,14H9a79.035,79.035,0,0,1,1-14c0-6-7-9-7-9C10,31,15,31,15,31Z" style="fill:#ae94f7"/><path d="M15,34a17,17,0,0,0,34,0s4.2.022,10.286,6.938A13.939,13.939,0,0,1,61,40c-7-9-12-9-12-9a17,17,0,0,1-34,0s-5,0-12,9a13.939,13.939,0,0,1,1.714.938C10.8,34.022,15,34,15,34Z" style="fill:#6d54c6"/><path d="M42.82,18H21.18a11,11,0,0,1,21.64,0Z" style="fill:#ae94f7"/><path d="M42.82,18A11.017,11.017,0,1,0,43,20,11,11,0,0,0,42.82,18ZM16.37,21.69A22.516,22.516,0,0,0,17,16c0-.35.01-.69.04-1.03A15.017,15.017,0,0,1,32,1,14.991,14.991,0,0,1,45.22,8.91a14.825,14.825,0,0,1,1.74,6.06c.03.34.04.68.04,1.03a22.516,22.516,0,0,0,.63,5.69c.33,1.37.73,2.57,1,4.25A29.82,29.82,0,0,1,49,31a17,17,0,0,1-34,0,29.82,29.82,0,0,1,.37-5.06C15.64,24.26,16.04,23.06,16.37,21.69ZM35,35H29a3,3,0,0,0,6,0Z" style="fill:#9f72fc"/><path d="M38,35H35a2.982,2.982,0,0,1-1.5,2.585A2.982,2.982,0,0,0,38,35Z" style="fill:#8457e5"/><path d="M42.82,18A11.007,11.007,0,0,1,33.5,30.886a11,11,0,1,0,0-21.774A11,11,0,0,1,42.82,18Z" style="fill:#8457e5"/><path d="M18,31a29.82,29.82,0,0,1,.37-5.06c.27-1.68.67-2.88,1-4.25A22.516,22.516,0,0,0,20,16c0-.35.01-.69.04-1.03A15.022,15.022,0,0,1,33.459,1.079C32.978,1.032,32.493,1,32,1A14.982,14.982,0,0,0,17.04,14.97c-.03.34-.04.68-.04,1.03a22.516,22.516,0,0,1-.63,5.69c-.33,1.37-.73,2.57-1,4.25A29.82,29.82,0,0,0,15,31,17,17,0,0,0,32,48c.506,0,1.005-.032,1.5-.076A16.992,16.992,0,0,1,18,31Z" style="fill:#8457e5"/><path d="M34,18v3a2.015,2.015,0,0,1-2,2,2.006,2.006,0,0,1-2-2V18Z" style="fill:#7e8596"/><path d="M42.82,18a11,11,0,1,1-21.64,0H30v3a2.006,2.006,0,0,0,2,2,2.015,2.015,0,0,0,2-2V18Z" style="fill:#f2f6fc"/><path d="M42.951,20.963c.028-.318.049-.638.049-.963a11.021,11.021,0,0,0-.18-2H34v2h8.82C42.878,20.316,42.922,20.638,42.951,20.963Z" style="fill:#cdd2e1"/><path d="M21.18,20H30V18H21.18A11.021,11.021,0,0,0,21,20c0,.325.021.645.049.963C21.078,20.638,21.122,20.316,21.18,20Z" style="fill:#cdd2e1"/><path d="M30,23a2.006,2.006,0,0,0,2,2,2.015,2.015,0,0,0,2-2V21a2.015,2.015,0,0,1-2,2,2.006,2.006,0,0,1-2-2Z" style="fill:#cdd2e1"/><rect x="19.172" y="43" width="5.657" height="2" transform="translate(-24.669 28.444) rotate(-45)" style="fill:#45409e"/><rect x="23.585" y="45.5" width="5.831" height="2" transform="matrix(0.515, -0.857, 0.857, 0.515, -27.007, 45.291)" style="fill:#45409e"/><rect x="31" y="45" width="2" height="6" style="fill:#45409e"/><rect x="41" y="41.172" width="2" height="5.657" transform="translate(-18.811 42.586) rotate(-45)" style="fill:#45409e"/><rect x="36.5" y="43.585" width="2" height="5.831" transform="matrix(0.857, -0.514, 0.514, 0.857, -18.58, 25.92)" style="fill:#45409e"/><path d="M61.988,39.848a1.01,1.01,0,0,0-.2-.462c-5.509-7.083-9.921-8.817-11.8-9.244a31.685,31.685,0,0,0-.243-3.523c3.349-1.524,4.207-7.2,4.247-7.477a1,1,0,0,0-1.437-1.037l-4.214,2.107A23.036,23.036,0,0,1,48,16c0-.04-.006-.078-.006-.118,6-.659,8.684-4.119,8.806-4.282A1,1,0,0,0,57,11C57,6.885,55.032.935,54.949.684A1,1,0,0,0,53.071.628L51.226,5.244l-5.606,2.4a15.954,15.954,0,0,0-27.24,0l-5.606-2.4L10.929.628A.991.991,0,0,0,9.971,0a1,1,0,0,0-.92.684C8.968.935,7,6.885,7,11a1,1,0,0,0,.2.6c.122.163,2.806,3.623,8.806,4.282,0,.04-.006.078-.006.118a23.036,23.036,0,0,1-.339,4.212l-4.214-2.107a1,1,0,0,0-1.437,1.037c.04.277.9,5.953,4.247,7.477a31.685,31.685,0,0,0-.243,3.523c-1.883.427-6.295,2.161-11.8,9.244a1.01,1.01,0,0,0-.2.462A186.248,186.248,0,0,0,0,63a1,1,0,0,0,1,1H63a1,1,0,0,0,1-1A186.248,186.248,0,0,0,61.988,39.848ZM51.53,20.853a7.347,7.347,0,0,1-2.156,3.664c-.145-.652-.3-1.252-.458-1.838-.041-.153-.081-.3-.121-.458Zm1.441-8.619a11.55,11.55,0,0,1-2.014.948,30.511,30.511,0,0,0-.7-5.347l1.314-.563A13.191,13.191,0,0,1,52.971,12.234Zm.882-8.174A32.05,32.05,0,0,1,55,10.639c-.05.054-.109.115-.175.182a15.217,15.217,0,0,0-1.708-4.909Zm-5.47,4.578a30.231,30.231,0,0,1,.592,5.084c-.361.069-.735.129-1.13.174a15.817,15.817,0,0,0-1.279-4.479ZM12.43,7.272l1.314.563a30.511,30.511,0,0,0-.7,5.347,11.625,11.625,0,0,1-2.014-.947A13.2,13.2,0,0,1,12.43,7.272ZM10.147,4.06l.741,1.852A15.217,15.217,0,0,0,9.18,10.821c-.067-.067-.126-.129-.175-.182A32.05,32.05,0,0,1,10.147,4.06Zm4.878,9.662a30.231,30.231,0,0,1,.592-5.084l1.817.779A15.817,15.817,0,0,0,16.155,13.9C15.76,13.851,15.386,13.791,15.025,13.722ZM32,2A14.015,14.015,0,0,1,46,16a24.192,24.192,0,0,0,.984,7.2A25.937,25.937,0,0,1,48,31a15.957,15.957,0,0,1-5.522,12.064l-1.771-1.771-1.414,1.414L40.884,44.3a16.066,16.066,0,0,1-2.671,1.446l-1.356-2.259-1.714,1.03L36.275,46.4A15.862,15.862,0,0,1,33,46.949V45H31v1.949a15.862,15.862,0,0,1-3.275-.547l1.132-1.887-1.714-1.03-1.356,2.259A16.066,16.066,0,0,1,23.116,44.3l1.591-1.591-1.414-1.414-1.771,1.771A15.957,15.957,0,0,1,16,31a25.937,25.937,0,0,1,1.016-7.8A24.192,24.192,0,0,0,18,16,14.015,14.015,0,0,1,32,2ZM12.47,20.853l2.735,1.368c-.04.153-.08.3-.121.458-.157.586-.313,1.186-.458,1.838A7.347,7.347,0,0,1,12.47,20.853ZM14.061,32.2a17.939,17.939,0,0,0,6.048,12.28l-.816.816,1.414,1.414.978-.978a18.009,18.009,0,0,0,3.07,1.736l-.612,1.02,1.714,1.03.8-1.326a17.926,17.926,0,0,0,4.347.76V51h2V48.949a17.926,17.926,0,0,0,4.347-.76l.8,1.326,1.714-1.03-.612-1.02a18.009,18.009,0,0,0,3.07-1.736l.978.978,1.414-1.414-.816-.816A17.939,17.939,0,0,0,49.939,32.2c1.591.467,5.067,2.075,9.507,7.475C57.314,40.875,53,43.931,53,49a.925.925,0,0,0,.02.2A77.1,77.1,0,0,1,53.993,62H10.007a77.489,77.489,0,0,1,.973-12.8A.909.909,0,0,0,11,49c0-5.069-4.314-8.125-6.446-9.328C8.994,34.272,12.47,32.664,14.061,32.2ZM3.787,41.544C5.618,42.625,8.947,45.106,9,48.908A79.383,79.383,0,0,0,8.006,62h-6A181.994,181.994,0,0,1,3.787,41.544ZM55.994,62A79.383,79.383,0,0,0,55,48.908c.054-3.786,3.382-6.274,5.214-7.361A182.089,182.089,0,0,1,61.994,62Z"/><path d="M32,32A12,12,0,1,0,20,20,12.013,12.013,0,0,0,32,32Zm0-22a10.016,10.016,0,0,1,9.539,7H22.461A10.016,10.016,0,0,1,32,10Zm-1,9h2v2a1,1,0,0,1-2,0Zm-8.949,0H29v2a3,3,0,0,0,6,0V19h6.949a10,10,0,1,1-19.9,0Z"/><path d="M35,34H29a1,1,0,0,0-1,1,4,4,0,0,0,8,0A1,1,0,0,0,35,34Zm-3,3a2,2,0,0,1-1.731-1h3.462A2,2,0,0,1,32,37Z"/></g></svg>